<?xml version="1.0" encoding="utf-8"?>
<!-- Generator: Adobe Illustrator 22.0.1, SVG Export Plug-In . SVG Version: 6.00 Build 0)  -->
<svg version="1.1" id="Layer_1" xmlns="http://www.w3.org/2000/svg" xmlns:xlink="http://www.w3.org/1999/xlink" x="0px" y="0px"
	 viewBox="0 0 300 102" style="enable-background:new 0 0 300 102;" xml:space="preserve">
<style type="text/css">
	.st0{fill:#9A3C81;}
</style>
<g>
	<path class="st0" d="M28.7,70.7c3.6,3.3,8.1,5.3,12.8,5.6l0.1,0c4.7,0.1,8.8-1,12.1-3.3c0.8-0.5,1.6-1.1,2.3-1.8l0.3-0.3l0,0
		c1.6-1.5,3-3.3,4-5.2l0-0.1c1.4-3,2.1-6,2-9.2c0-0.1,0-0.2,0-0.2c0-4.4-3.6-8-8-8s-8,3.6-8,8c0,0.8,0.1,1.6,0.3,2.3
		c-0.7,0.5-2.2,1.1-4.7,0.1c-5.7-2.2-10.1-1.6-13.1-0.1c0.4,1.5,0.9,2.9,1.8,4.2c1.8-1,4.9-1.6,9.6,0.2c4,1.6,7,0.8,8.9-0.5
		c1.2,1,2.7,1.7,4.3,1.9c0.4-0.5,0.7-1,1-1.6c0.5-1.1,0.9-2.1,1.1-3.2c-0.4,0.1-0.7,0.2-1.1,0.2c-1.9,0-3.5-1.6-3.5-3.5
		c0-1.9,1.6-3.5,3.5-3.5c1.7,0,3.2,1.3,3.4,3c0,0.1,0,0.1,0,0.2c0,0.2,0,0.4,0,0.5c0,0.1,0,0.2,0,0.2h0c0.1,2.3-0.4,4.7-1.5,6.9
		c-0.8,1.6-1.9,3-3.2,4.2l-0.2,0.2c-0.5,0.5-1.1,0.9-1.7,1.3l0,0c-2.5,1.7-5.7,2.6-9.4,2.5c-3.6-0.3-7.2-1.8-9.9-4.4
		c-8.5-8.5-4.7-17.9-3.3-20.6c0.9-1.8,6-10.2,16.9-10.3v0c6.4,0,11.7-5.6,11.7-12.5c0-6.9-5.2-12.5-11.7-12.5S33.7,17,33.7,23.9
		c0,2.8,0.9,5.4,2.4,7.6c1.5-0.6,3.1-1,4.8-1.3c-0.1-0.1-0.2-0.3-0.3-0.4c-1.5-1.5-2.3-3.6-2.3-5.9c0-4.4,3.2-7.9,7.1-7.9
		s7.1,3.6,7.1,7.9s-3.2,7.9-7.1,7.9c0,0-0.1,0-0.1,0C31.8,32,25.6,42.4,24.4,44.6C20.9,51.6,20.1,62.1,28.7,70.7L28.7,70.7z"/>
	<path class="st0" d="M70,50.6c-2.9-9.7-9.3-14.4-14.7-16.6c-1.2,1.4-2.7,2.5-4.4,3.3c4.8,1.4,11.8,5,14.7,14.7l0,0.1
		c0.2,0.5,4.1,12.9-7.2,23.4c-12.7,11-26.5,3.8-27.1,3.5l-0.1,0C19.4,73,17.1,61.8,17,61.3c-0.2-1.2-1.4-2.1-2.7-1.8
		c-1.3,0.2-2.1,1.4-1.8,2.7c0.1,0.6,2.8,13.9,16.8,20.8c3,1.6,7.8,3.1,13.3,3.1c6,0,12.7-1.8,19-7.2l0.1,0
		C74.9,66.5,70.4,51.7,70,50.6L70,50.6z"/>
	<path class="st0" d="M103.4,26.7c-1.9,0-2.8,1-2.8,2.9v32.4c0,2.7-0.7,4.7-2.2,6.1c-1.5,1.4-3.3,2.1-5.6,2.1s-4.2-0.7-5.6-2.1
		c-1.5-1.4-2.2-3.4-2.2-6.1l0.1-19c0-0.9-0.3-1.6-0.8-2.1c-0.5-0.5-1.2-0.8-2-0.8c-1.9,0-2.8,1-2.8,2.9l0.1,18.9
		c0,2.5,0.4,4.6,1.2,6.2s1.8,3,3.1,3.9c1.2,1,2.7,1.6,4.2,2c1.6,0.4,3.1,0.6,4.7,0.6c1.6,0,3.2-0.2,4.8-0.6c1.6-0.4,3-1.1,4.3-2.1
		c1.3-1,2.3-2.2,3.1-3.9c0.8-1.6,1.2-3.7,1.2-6.2V29.5C106,27.6,105.1,26.7,103.4,26.7L103.4,26.7z"/>
	<path class="st0" d="M131,56.8c-1.4-0.7-2.8-1.3-4.4-1.7c-1.6-0.4-3.1-0.8-4.4-1.3c-1.4-0.4-2.5-1-3.4-1.7
		c-0.9-0.7-1.3-1.7-1.3-3.1c0-1.4,0.6-2.5,1.9-3.3c1.3-0.8,2.7-1.1,4.4-1.1c1.6,0,2.9,0.2,3.8,0.6s1.8,1,2.6,1.9
		c1,1.6,2.2,1.9,3.6,1.1c0.6-0.4,1-1,1-1.7c0-0.7-0.2-1.4-0.7-2.1c-1.1-1.7-2.7-2.8-4.6-3.4c-1.9-0.6-3.8-1-5.7-1
		c-1.3,0-2.7,0.2-4.1,0.5c-1.4,0.3-2.7,0.8-3.8,1.6c-1.1,0.7-2,1.7-2.8,2.8c-0.7,1.1-1.1,2.5-1.1,4.2c0,2.2,0.5,4,1.4,5.2
		s2.1,2.2,3.4,3c1.3,0.7,2.8,1.3,4.4,1.7c1.6,0.4,3.1,0.8,4.4,1.3c1.3,0.5,2.5,1.1,3.4,1.9c0.9,0.8,1.4,1.9,1.4,3.3
		c0,1.3-0.6,2.4-1.9,3.3c-1.3,0.9-3,1.4-5.1,1.4c-1.1,0-2.4-0.2-3.8-0.6c-1.4-0.4-2.5-1-3.3-1.9c-1-1.6-2.2-1.9-3.6-1.1
		c-0.6,0.4-1,1-1,1.7c0,0.7,0.2,1.4,0.8,2.2c1.2,1.6,2.9,2.7,5,3.3c2.1,0.6,4.2,1,6.1,1c1.5,0,3-0.2,4.5-0.6c1.5-0.4,2.8-1,3.9-1.8
		c1.1-0.8,2.1-1.8,2.7-3c0.7-1.2,1-2.6,1-4.2c0-2.2-0.4-4-1.3-5.3S132.4,57.5,131,56.8L131,56.8z"/>
	<path class="st0" d="M156.6,63.1c-0.6-0.3-1.2-0.4-2-0.3c-0.8,0.1-1.3,0.5-1.7,1.2c-0.5,1.1-1.2,1.8-2,2.2
		c-0.8,0.4-1.7,0.6-2.8,0.6c-2.4,0-3.9-1-4.7-2.9c-0.3-0.7-0.9-1.1-1.8-1.2s-1.6,0-2.2,0.3s-0.9,0.8-1.1,1.5
		c-0.1,0.7-0.1,1.4,0.1,2.1c0.7,1.8,1.9,3.1,3.6,4.1c1.7,0.9,3.7,1.4,5.8,1.4c1.7,0,3.4-0.4,5.3-1.2c1.8-0.8,3.3-2.1,4.2-4V67
		c0.4-0.8,0.5-1.6,0.3-2.3C157.5,63.9,157.2,63.4,156.6,63.1z"/>
	<path class="st0" d="M156.6,44.4c-0.6-0.3-1.2-0.4-2-0.3c-0.8,0.1-1.3,0.5-1.7,1.2c-0.5,1.1-1.2,1.8-2,2.2
		c-0.8,0.4-1.7,0.6-2.8,0.6c-2.4,0-3.9-1-4.7-2.9c-0.3-0.7-0.9-1.1-1.8-1.2s-1.6,0-2.2,0.3c-0.6,0.3-0.9,0.8-1.1,1.5
		c-0.1,0.7-0.1,1.4,0.1,2.1c0.7,1.8,1.9,3.1,3.6,4.1c1.7,0.9,3.7,1.4,5.8,1.4c1.7,0,3.4-0.4,5.3-1.2c1.8-0.8,3.3-2.1,4.2-4
		c0.4-0.8,0.5-1.5,0.3-2.2C157.5,45.3,157.2,44.8,156.6,44.4z"/>
	<path class="st0" d="M184.5,42.7c-1.2-1-2.7-1.6-4.2-2.1c-1.6-0.4-3.2-0.6-4.8-0.6c-1.5,0-3.1,0.2-4.6,0.6c-1.6,0.4-3,1.1-4.3,2
		c-1.3,1-2.4,2.3-3.1,3.9c-0.8,1.7-1.2,3.7-1.2,6.2v18.8c0,2,0.9,3,2.8,3c1.8,0,2.7-1,2.7-3V52.6c0-2.7,0.7-4.7,2.2-6.1
		c1.5-1.4,3.3-2.1,5.6-2.1s4.2,0.7,5.6,2.1s2.2,3.4,2.2,6.1v18.9c0,2,0.9,3,2.8,3c1.8,0,2.7-1,2.7-3V52.8c0-2.5-0.4-4.5-1.2-6.2
		C186.8,45,185.8,43.7,184.5,42.7z"/>
	<path class="st0" d="M186.1,37.8c0.9,0.1,1.8-0.1,2.7-0.6c0.9-0.5,2.1-1.4,3.3-2.5l8.5-7.7c0.8-0.8,1.3-1.5,1.3-2.1
		c0-0.6-0.2-1.2-0.8-1.8c-0.5-0.5-1-0.8-1.7-0.9c-0.6-0.1-1.4,0.3-2.2,1l-8.5,7.7c-1,0.9-1.7,1.3-2.2,1.1c-0.5-0.1-1.3-0.8-2.4-2
		c-0.8-0.8-1.4-1.3-2-1.3c-0.6,0-1.2,0.2-1.8,0.7c-1.4,1.3-1.5,2.7-0.1,4.1c1.2,1.4,2.3,2.4,3.2,3.1
		C184.3,37.4,185.2,37.7,186.1,37.8z"/>
	<path class="st0" d="M218.5,40c-1.8,0-2.7,1-2.7,2.9v18.2c0,1.5-0.3,2.8-0.9,3.9c-0.6,1.1-1.3,2.1-2.2,2.8
		c-0.9,0.8-1.8,1.4-2.9,1.8c-1.1,0.4-2.1,0.6-3.1,0.6c-1.8,0-3.3-0.5-4.4-1.6c-1.2-1.1-1.8-2.8-1.8-5.3V42.9c0-1.9-0.9-2.9-2.8-2.9
		c-1.8,0-2.7,1-2.7,2.9v20.4c0,2.2,0.3,4.1,1.1,5.5c0.7,1.5,1.6,2.6,2.7,3.5c1.1,0.9,2.4,1.4,3.7,1.8c1.4,0.3,2.7,0.5,4,0.5
		c1.7,0,3.3-0.3,5.1-1.1c1.7-0.7,3.1-1.8,4-3.3l0.2-0.4v1.7c0,2,0.9,3,2.7,3c1.8,0,2.8-1,2.8-3V42.9C221.3,41,220.4,40,218.5,40
		L218.5,40z"/>
	<path class="st0" d="M252.1,43.8c-1.1-1.2-2.7-2.2-4.6-2.9c-1.9-0.7-4.3-1.1-7.3-1.1c-2.4,0-4.5,0.4-6.5,1.1
		c-2,0.8-3.6,1.8-4.8,3.1c-0.7,0.7-1.1,1.4-1.1,2.2c0,0.8,0.3,1.4,0.9,2c1.2,1.1,2.5,0.9,3.9-0.5c0.9-0.9,1.9-1.6,3.1-2.2
		c1.2-0.6,2.7-0.9,4.5-0.9c1.9,0,3.5,0.3,4.7,0.8c1.2,0.5,2.2,1.1,2.9,1.8c0.7,0.7,1.2,1.4,1.5,2.2c0.3,0.8,0.4,1.4,0.4,1.8
		c0,1.7-0.9,2.7-2.8,2.9c-1.9,0.2-4.8,0.3-8.8,0.3c-1.9,0-3.5,0.3-4.9,0.9c-1.4,0.6-2.6,1.3-3.5,2.3c-0.9,1-1.6,2.1-2.1,3.3
		c-0.4,1.2-0.7,2.5-0.7,3.8c0,1.5,0.3,3,1,4.3c0.6,1.4,1.6,2.5,2.8,3.5c1.2,1,2.8,1.6,4.7,2c1.9,0.4,4.1,0.3,6.6-0.2
		c0.8-0.2,1.5-0.5,2-1.1c0.5-0.5,0.7-1.2,0.5-2.1c-0.4-1.5-1.5-2-3.3-1.7c-2.9,0.5-5.1,0.2-6.5-0.9c-1.4-1.1-2.1-2.4-2.1-4
		c0-1.3,0.5-2.4,1.6-3.5c1.1-1.1,2.7-1.6,4.9-1.6c2,0,4,0,5.9-0.1c1.9-0.1,3.5-0.6,4.7-1.5v13.8c0,2,0.9,3,2.7,3c1.8,0,2.8-1,2.8-3
		V52.8c0-1.7-0.2-3.3-0.7-4.9C254.1,46.4,253.3,45,252.1,43.8L252.1,43.8z"/>
	<path class="st0" d="M251.7,77c-0.9,0-1.5,0.3-1.9,0.8c-0.3,0.5-0.5,1.3-0.5,2.2v4c0,0.6-0.2,1.2-0.6,1.8c-0.4,0.5-1.1,0.8-2,0.8
		c-1.1,0-1.8-0.3-2.2-0.8c-0.4-0.5-0.6-1.1-0.6-1.7v-3.7c0-0.9-0.3-1.6-0.8-2.1c-0.5-0.5-1.2-0.8-2-0.8H237c-0.9,0-1.6,0.2-2.2,0.7
		c-0.6,0.5-0.9,1.2-0.9,2.1c0,1.7,1,2.6,3.1,2.6h1.8v2.3c0,1.8,0.8,3.2,2.4,4.1c1.6,0.9,3.5,1.3,5.6,1.3c2.1,0,3.9-0.5,5.4-1.5
		c1.5-1,2.2-2.3,2.2-4v-5.3c0-0.9-0.3-1.6-0.8-2.1C253.2,77.3,252.5,77,251.7,77L251.7,77z"/>
	<path class="st0" d="M286.3,46.6c-0.8-1.6-1.8-2.9-3.1-3.9c-1.2-1-2.7-1.6-4.2-2.1c-1.6-0.4-3.2-0.6-4.8-0.6
		c-1.5,0-3.1,0.2-4.6,0.6c-1.6,0.4-3,1.1-4.3,2c-1.3,1-2.4,2.3-3.1,3.9c-0.8,1.7-1.2,3.7-1.2,6.2v18.8c0,2,0.9,3,2.8,3
		c1.8,0,2.7-1,2.7-3V52.6c0-2.7,0.7-4.7,2.2-6.1c1.5-1.4,3.3-2.1,5.6-2.1s4.2,0.7,5.6,2.1c1.5,1.4,2.2,3.4,2.2,6.1v18.9
		c0,2,0.9,3,2.8,3c1.8,0,2.7-1,2.7-3V52.7C287.5,50.3,287.1,48.2,286.3,46.6L286.3,46.6z"/>
</g>
</svg>
