<?xml version="1.0" encoding="utf-8"?>
<!-- Generator: Adobe Illustrator 22.0.1, SVG Export Plug-In . SVG Version: 6.00 Build 0)  -->
<svg version="1.1" id="Layer_1" xmlns="http://www.w3.org/2000/svg" xmlns:xlink="http://www.w3.org/1999/xlink" x="0px" y="0px"
	 viewBox="0 0 2780.7 947.7" style="enable-background:new 0 0 2780.7 947.7;" xml:space="preserve">
<style type="text/css">
	.st0{fill:#AA2270;}
</style>
<path class="st0" d="M205.5,752.5c45.2,42.1,103.1,67.5,163,71.6l1.5,0.1c59.9,1,111.5-13.2,153.7-42c10.4-6.8,20.4-14.4,29.5-22.6
	l4.5-3.9l0.2-0.3c20.4-19,37.5-41.3,50.7-66.6l0.4-0.9c18.2-37.6,26.6-76.7,25.2-116.3c0.1-1,0.2-2.1,0.2-3.1
	c0-56.3-45.8-102.1-102.1-102.1c-56.3,0-102.1,45.8-102.1,102.1c0,10.2,1.6,20.1,4.4,29.4c-9.3,6.8-27.8,13.5-59.9,1.1
	c-72.7-28.2-127.7-20.8-165.7-1.8c4.5,18.6,12.1,36.5,22.8,53.7c23.1-13,61.6-20.9,121.9,2.5c51.1,19.8,88.9,9.7,113.1-6.9
	c15,12.7,33.7,21.2,54.3,23.5c4.6-6.3,8.7-12.8,12.4-19.7c6.4-13.3,10.8-26.9,13.5-40.5c-4.6,1.6-9.4,2.5-14.5,2.5
	c-24.2,0-43.8-19.7-43.8-43.8c0-24.2,19.7-43.8,43.8-43.8c22,0,40.2,16.3,43.3,37.5c0,0.8-0.1,1.5,0,2.3c0.2,2.3,0.2,4.6,0.3,6.9
	c-0.1,0.9-0.1,1.9-0.2,2.9h0.4c0.9,29.7-5.6,59.3-19.3,87.9c-10.7,20.2-24.5,38-41.1,52.8l-2.7,2.4c-6.7,5.9-13.9,11.3-21.4,16.1
	l-0.6,0.4c-31.9,21.8-72,32.6-119.4,32c-46.2-3.4-90.9-23.1-126.1-55.7c-107.7-108-59.2-227.6-41.9-261.3
	c11.9-22.5,76-129.5,214.6-130.9v-0.1c81.6,0,148.1-71.3,148.1-158.9C566.5,71.3,500,0,418.4,0c-81.7,0-148.1,71.3-148.1,158.9
	c0,35,10.9,69,30.5,96.5c18.7-7.4,39.1-13.3,61.2-17.1c-1.1-1.7-2.3-3.4-3.8-4.9c-18.8-19.1-29.6-46.2-29.6-74.6
	c0-55.5,40.3-100.6,89.8-100.6c49.5,0,89.7,45.1,89.7,100.6c0,55.5-40.3,100.6-89.7,100.6c-0.5,0-1,0.1-1.5,0.1
	c-170.7,2-250,134.1-264.9,162.3c-45.4,88.7-55.4,221.9,52.8,329.9L205.5,752.5z"/>
<path class="st0" d="M731,497.6c-36.7-123-118-182.5-186.4-211.3c-15.8,17.6-34.7,32-56,42c60.4,17.6,150.3,64,186.6,186.4l0.3,1
	c2.2,6.6,52,163.7-91.5,296.5c-161,139.5-336.3,48-343.7,44.1l-1-0.5C88.5,782,59.1,639.6,57.8,633.2c-3-15.8-18.2-26.2-34-23.2
	C8,613-2.5,628.2,0.5,644c1.4,7.2,35,176.7,212.8,263.8c38.6,20.6,99.1,39.9,168.4,39.9c75.5,0,161.5-22.9,240.9-91.9l0.7-0.6
	C792.6,699,735.7,511.9,731,497.6z"/>
<g>
	<path class="st0" d="M1112.3,641.5c0,22.9-3.7,41.8-11,56.7c-7.3,14.9-16.9,26.8-28.6,35.6c-11.7,8.8-24.9,15.1-39.6,18.9
		c-14.7,3.8-29.3,5.7-44,5.7c-14.1,0-28.4-1.8-43.1-5.3c-14.7-3.5-27.7-9.7-39.1-18.5s-20.8-20.8-28.1-36c-7.3-15.2-11-34.3-11-57.1
		L867,467.4c0-17.6,8.5-26.4,25.5-26.4c7.6,0,13.8,2.3,18.5,7c4.7,4.7,7,11.1,7,19.3l-0.9,174.9c0,24.6,6.7,43.2,20.2,55.8
		c13.5,12.6,30.8,18.9,51.9,18.9s38.4-6.3,51.9-18.9c13.5-12.6,20.2-31.2,20.2-55.8v-298c0-17.6,8.5-26.4,25.5-26.4
		c15.8,0,24.3,8.8,25.5,26.4V641.5z"/>
	<path class="st0" d="M1384.8,671.4c0,15.2-3.1,28.3-9.2,39.1c-6.2,10.9-14.5,19.9-25.1,27.3c-10.5,7.3-22.6,12.7-36,16.3
		c-13.5,3.5-27.3,5.3-41.3,5.3c-17.6,0-36.2-2.9-55.8-8.8c-19.6-5.9-35-16.1-46.2-30.8c-5.3-7-7.8-13.8-7.5-20.2
		c0.3-6.4,3.4-11.7,9.2-15.8c12.9-8.2,24-5,33.4,9.7c7,7.6,17,13.3,29.9,17.1c12.9,3.8,24.6,5.7,35.2,5.7c19.3,0,34.9-4.2,46.6-12.7
		c11.7-8.5,17.6-18.6,17.6-30.3c0-13.5-4.3-23.7-12.7-30.8c-8.5-7-18.9-12.7-31.2-17.1c-12.3-4.4-25.9-8.4-40.9-11.9
		c-14.9-3.5-28.6-8.6-40.9-15.4c-12.3-6.7-22.7-15.8-31.2-27.3c-8.5-11.4-12.7-27.4-12.7-47.9c0-15.2,3.4-28.1,10.1-38.7
		c6.7-10.5,15.2-19.2,25.5-25.9c10.2-6.7,21.8-11.6,34.7-14.5c12.9-2.9,25.5-4.4,37.8-4.4c17.6,0,35.2,2.9,52.7,8.8
		c17.6,5.9,31.6,16.4,42.2,31.6c4.7,6.5,6.9,12.9,6.6,19.3c-0.3,6.5-3.4,11.7-9.2,15.8c-12.9,8.2-24,5-33.4-9.7
		c-7-8.2-14.9-14.1-23.7-17.6c-8.8-3.5-20.5-5.3-35.2-5.3c-15.2,0-28.7,3.5-40.4,10.5c-11.7,7-17.6,17-17.6,29.9
		c0,12.9,4.1,22.6,12.3,29c8.2,6.5,18.6,11.7,31.2,15.8c12.6,4.1,26.2,8.1,40.9,11.9c14.6,3.8,28.3,9.1,40.9,15.8
		c12.6,6.7,23,16,31.2,27.7C1380.7,634.7,1384.8,650.9,1384.8,671.4z"/>
	<path class="st0" d="M1584.3,516.6c-8.8,17-21.7,29.2-38.7,36.5c-17,7.3-33.1,11-48.3,11c-19.9,0-37.8-4.2-53.6-12.7
		c-15.8-8.5-27-20.9-33.4-37.4c-1.8-6.4-2.1-12.7-0.9-18.9c1.2-6.2,4.4-10.7,9.7-13.6c5.3-2.9,11.9-4,19.8-3.1s13.3,4.5,16.3,11
		c7,17.6,21.4,26.4,43.1,26.4c9.4,0,17.9-1.9,25.5-5.7c7.6-3.8,13.8-10.7,18.5-20.7c3.5-6.4,8.8-10.1,15.8-11s13.2,0.2,18.5,3.1
		c5.3,2.9,8.8,7.8,10.5,14.5C1588.7,502.7,1587.8,509.6,1584.3,516.6z M1584.3,688.1c-8.8,17-21.7,29.2-38.7,36.5
		c-17,7.3-33.1,11-48.3,11c-19.9,0-37.8-4.2-53.6-12.7c-15.8-8.5-27-20.9-33.4-37.4c-1.8-6.4-2.1-12.7-0.9-18.9
		c1.2-6.2,4.4-10.7,9.7-13.6c5.3-2.9,11.9-4,19.8-3.1s13.3,4.5,16.3,11c7,17.6,21.4,26.4,43.1,26.4c9.4,0,17.9-1.9,25.5-5.7
		c7.6-3.8,13.8-10.7,18.5-20.7c3.5-6.4,8.8-10.1,15.8-11s13.2,0.2,18.5,3.1c5.3,2.9,8.8,7.8,10.5,14.5c1.8,6.7,0.9,13.9-2.6,21.5
		V688.1z"/>
	<path class="st0" d="M1872.7,731.1c0,18.2-8.2,27.3-24.6,27.3c-17,0-25.5-9.1-25.5-27.3V557.1c0-24.6-6.7-43.2-20.2-55.8
		c-13.5-12.6-30.8-18.9-51.9-18.9c-21.1,0-38.4,6.3-51.9,18.9c-13.5,12.6-20.2,31.2-20.2,55.8v174.1c0,18.2-8.2,27.3-24.6,27.3
		c-17,0-25.5-9.1-25.5-27.3V558c0-22.9,3.7-41.9,11-57.1c7.3-15.2,17-27.3,29-36c12-8.8,25.2-14.9,39.6-18.5
		c14.4-3.5,28.6-5.3,42.6-5.3c14.6,0,29.3,1.9,44,5.7c14.6,3.8,27.7,10.1,39.1,18.9c11.4,8.8,20.8,20.7,28.1,35.6
		c7.3,14.9,11,33.8,11,56.7V731.1z"/>
	<path class="st0" d="M1961.4,362.8c0,7.6-2.1,13.3-6.2,17.1c-4.1,3.8-11.4,5.7-22,5.7h-105.5c-15.8,0-28.6-1.2-38.2-3.5
		c-9.7-2.3-17.1-6.4-22.4-12.3c-5.3-5.9-8.8-14.1-10.5-24.6c-1.8-10.5-2.6-24.3-2.6-41.3c0-18.2,8.8-27.3,26.4-27.3
		c7,0.6,12.5,2.8,16.3,6.6c3.8,3.8,5.7,11,5.7,21.5c0,15.2,1.3,24.9,4,29c2.6,4.1,10.1,6.2,22.4,6.2h105.5c10,0,17,2.2,21.1,6.6
		C1959.4,350.9,1961.4,356.4,1961.4,362.8z"/>
	<path class="st0" d="M2171.5,731.1c0,18.2-8.5,27.3-25.5,27.3c-16.4,0-24.6-9.1-24.6-27.3v-15.8l-1.8,3.5
		c-8.8,13.5-21.1,23.4-36.9,29.9c-15.8,6.4-31.4,9.7-46.6,9.7c-11.7,0-23.9-1.5-36.5-4.4c-12.6-2.9-24-8.4-34.3-16.3
		c-10.3-7.9-18.6-18.6-25.1-32.1c-6.5-13.5-9.7-30.5-9.7-51V467.4c0-17.6,8.2-26.4,24.6-26.4c17,0,25.5,8.8,25.5,26.4v188.1
		c0,22.3,5.4,38.4,16.3,48.3c10.8,10,24.5,14.9,40.9,14.9c9.4,0,19-1.9,29-5.7c10-3.8,18.9-9.2,26.8-16.3c7.9-7,14.5-15.7,19.8-25.9
		c5.3-10.2,7.9-22.1,7.9-35.6V467.4c0-17.6,8.2-26.4,24.6-26.4c17,0,25.5,8.8,25.5,26.4V731.1z"/>
	<path class="st0" d="M2483.6,731.1c0,18.2-8.5,27.3-25.5,27.3c-16.4,0-24.6-9.1-24.6-27.3V604.5c-11.7,8.2-26.2,12.7-43.5,13.6
		c-17.3,0.9-35.3,1.3-54.1,1.3c-20.5,0-35.6,4.8-45.3,14.5s-14.5,20.4-14.5,32.1c0,14.7,6.4,27,19.3,36.9
		c12.9,10,32.8,12.6,59.8,7.9c17-2.9,27.3,2.3,30.8,15.8c1.8,8.2,0.3,14.7-4.4,19.3c-4.7,4.7-10.9,7.9-18.5,9.7
		c-22.9,4.7-43.1,5.3-60.7,1.8c-17.6-3.5-32.1-9.7-43.5-18.5c-11.4-8.8-20.1-19.5-25.9-32.1c-5.9-12.6-8.8-25.9-8.8-40
		c0-11.7,2-23.3,6.2-34.7c4.1-11.4,10.4-21.5,18.9-30.3c8.5-8.8,19.2-15.8,32.1-21.1c12.9-5.3,27.8-7.9,44.8-7.9
		c36.9,0,64-1,81.3-3.1c17.3-2,25.9-11,25.9-26.8c0-4.1-1.3-9.7-4-16.7s-7.2-13.8-13.6-20.2c-6.5-6.4-15.2-12-26.4-16.7
		c-11.1-4.7-25.5-7-43.1-7c-17,0-30.9,2.8-41.8,8.4c-10.9,5.6-20.4,12.5-28.6,20.7c-12.9,12.9-24.9,14.4-36,4.4
		c-5.3-4.7-7.9-10.7-7.9-18c0-7.3,3.2-14.2,9.7-20.7c11.1-11.7,25.9-21.1,44.4-28.1c18.5-7,38.5-10.5,60.2-10.5
		c27,0,49.2,3.4,66.8,10.1c17.6,6.7,31.6,15.7,42.2,26.8c10.5,11.1,17.9,24,22,38.7c4.1,14.7,6.2,29.6,6.2,44.8V731.1z"/>
	<path class="st0" d="M2476.6,856c0,15.2-6.9,27.4-20.7,36.5c-13.8,9.1-30.3,13.6-49.7,13.6c-19.9,0-37.2-4.1-51.9-12.3
		c-14.6-8.2-22-20.8-22-37.8v-21.1h-16.7c-18.7,0-28.1-7.9-28.1-23.7c0-8.2,2.6-14.5,7.9-18.9c5.3-4.4,12-6.6,20.2-6.6h38.7
		c7.6,0,13.8,2.3,18.5,7c4.7,4.7,7,11.1,7,19.3v34.3c0,5.9,1.8,11.1,5.3,15.8c3.5,4.7,10.3,7,20.2,7c8.2,0,14.2-2.5,18-7.5
		c3.8-5,5.7-10.4,5.7-16.3v-36.9c0-8.2,1.6-14.8,4.8-19.8c3.2-5,8.9-7.5,17.1-7.5c7.6,0,13.8,2.3,18.5,7c4.7,4.7,7,11.1,7,19.3V856z
		"/>
	<path class="st0" d="M2780.7,731.1c0,18.2-8.2,27.3-24.6,27.3c-17,0-25.5-9.1-25.5-27.3V557.1c0-24.6-6.7-43.2-20.2-55.8
		c-13.5-12.6-30.8-18.9-51.9-18.9c-21.1,0-38.4,6.3-51.9,18.9c-13.5,12.6-20.2,31.2-20.2,55.8v174.1c0,18.2-8.2,27.3-24.6,27.3
		c-17,0-25.5-9.1-25.5-27.3V558c0-22.9,3.7-41.9,11-57.1c7.3-15.2,17-27.3,29-36c12-8.8,25.2-14.9,39.6-18.5
		c14.4-3.5,28.6-5.3,42.6-5.3c14.6,0,29.3,1.9,44,5.7c14.6,3.8,27.7,10.1,39.1,18.9c11.4,8.8,20.8,20.7,28.1,35.6
		c7.3,14.9,11,33.8,11,56.7V731.1z"/>
</g>
</svg>
